<svg width="32" height="32" viewBox="0 0 32 32" fill="none" xmlns="http://www.w3.org/2000/svg">
<g clip-path="url(#clip0_45_108)">
<path d="M11.7112 14.383C11.2943 15.9373 11.5983 17.7129 12.5796 19.0047C14.1282 21.0457 17.0431 20.506 19.2517 20.1904C22.7977 19.686 29.4583 18.4089 29.9475 13.9523C30.9606 4.7147 16.9302 8.28647 13.3148 12.2358C13.2308 12.3272 13.3553 12.4658 13.4479 12.3803C15.7955 10.2744 18.612 9.01498 21.7209 8.62861C24.1784 8.32186 27.3915 8.13015 28.9112 10.5516C31.8174 15.1793 25.9963 18.0373 22.4822 18.9811C20.5833 19.4914 18.5368 19.863 16.5655 19.9014C13.529 19.9603 11.3291 17.5654 11.8733 14.4243C11.8906 14.3299 11.7401 14.2915 11.714 14.3859L11.7112 14.383Z" fill="black"/>
<path d="M26.9611 10.1124C29.8905 12.9704 25.4125 14.4156 24.0983 14.8846C23.4528 15.1146 22.7957 15.3152 22.1415 15.5216C20.5842 16.0171 14.6038 18.0906 14.1465 15.1353C14.1204 14.9701 13.8888 14.9966 13.8946 15.1648C14.0625 19.058 23.0475 15.6367 24.8712 14.9612C26.744 14.2652 29.4997 11.8702 27.0393 10.018C26.9756 9.96784 26.8945 10.0563 26.9553 10.1153L26.9611 10.1124Z" fill="black"/>
<path d="M16.2253 13.7083C19.2242 11.8797 24.2406 10.3017 27.7055 11.5936C27.8589 11.6496 27.9516 11.4284 27.8039 11.3576C25.7371 10.3342 23.2014 11.0922 21.0391 11.4608C19.2068 11.7735 17.58 12.3722 16.1819 13.6434C16.1501 13.6729 16.1877 13.7319 16.2253 13.7083Z" fill="black"/>
<path d="M15.2334 12.8112C16.1539 11.4191 18.1483 10.7318 19.6246 10.2452C20.9416 9.81161 22.4613 9.3515 23.8565 9.59336C23.8884 9.59925 23.9029 9.54616 23.871 9.53732C22.4324 9.13029 20.739 9.64644 19.3756 10.1125C17.9022 10.6168 16.0062 11.3217 15.1002 12.7109C15.0423 12.8023 15.1755 12.8997 15.2334 12.8082V12.8112Z" fill="black"/>
<path d="M3.09887 13.0982C5.71854 8.47053 16.9006 12.6115 18.7647 16.3809C18.8371 16.5284 19.0542 16.4547 19.0311 16.2924C18.5911 13.3961 12.4833 11.7326 10.0663 11.2518C7.75637 10.7888 4.27989 10.5056 3.01493 13.0481C2.98598 13.1041 3.06703 13.1542 3.09887 13.0982Z" fill="black"/>
<path d="M3.5905 14.0852C3.24314 16.3357 6.32885 17.8605 7.97591 18.5802C10.5261 19.6951 14.9231 21.4618 17.7135 20.4619C17.9104 20.3911 17.8235 20.0903 17.6238 20.1109C15.1402 20.344 12.8216 19.9163 10.4711 19.0698C8.26248 18.2764 4.20996 16.8017 3.76708 14.0793C3.74971 13.9761 3.60787 13.9909 3.5934 14.0882L3.5905 14.0852Z" fill="black"/>
<path d="M4.21933 13.5722C4.23702 13.5722 4.23702 13.5427 4.21933 13.5427C4.20163 13.5427 4.20163 13.5722 4.21933 13.5722Z" fill="black"/>
<path d="M4.50958 16.3541C5.72823 13.6141 7.87317 13.9621 10.3047 14.3308C12.4236 14.6523 14.5367 15.1979 16.1548 16.6992C16.3227 16.8555 16.5311 16.5842 16.3777 16.422C14.5164 14.493 4.13038 11.2693 4.41695 16.3276C4.41695 16.3718 4.48642 16.4043 4.50669 16.3541H4.50958Z" fill="black"/>
<path d="M2.72483 13.5946C0.287528 18.0099 4.50794 20.7469 8.04231 22.3986C11.3538 23.9441 18.437 25.5339 19.3575 20.1217C19.3778 20.0066 19.2186 19.927 19.1607 20.042C17.2126 23.8645 14.0632 23.9294 10.277 22.8941C8.07705 22.2924 5.68896 21.1835 3.93479 19.6055C2.0909 17.9391 2.198 15.9305 2.77693 13.6152C2.78272 13.5857 2.7393 13.568 2.72483 13.5946Z" fill="black"/>
<path d="M4.06229 13.3958C6.51117 10.2988 16.3212 12.7292 17.754 16.3304C17.7598 16.3481 17.7887 16.3393 17.7801 16.3216C16.7814 13.6583 12.9084 12.6761 10.4971 12.1658C8.89926 11.8296 4.64412 11.0156 4.04492 13.3899C4.04492 13.3987 4.0565 13.4076 4.06229 13.3987V13.3958Z" fill="black"/>
<path d="M25.0915 10.9869C25.3346 10.5976 25.4938 10.108 25.6154 9.66557C25.6241 9.63313 25.5807 9.60953 25.5633 9.64198C25.3462 10.0461 25.1204 10.5091 25.0278 10.9604C25.022 10.9958 25.0741 11.0194 25.0915 10.9869Z" fill="black"/>
<path d="M25.3176 10.986C25.5492 10.6822 25.7402 10.3076 25.7894 9.92123C25.7952 9.88584 25.746 9.86224 25.7286 9.89764C25.5636 10.2457 25.4276 10.6084 25.2684 10.9565C25.2539 10.9889 25.3002 11.0066 25.3176 10.983V10.986Z" fill="black"/>
<path d="M25.5778 11.1797C25.8557 10.7343 26.1712 10.283 26.3333 9.77574C26.3449 9.74035 26.3044 9.70495 26.2754 9.7374C25.9425 10.1533 25.7399 10.6665 25.517 11.1472C25.4996 11.1885 25.5546 11.2151 25.5749 11.1767L25.5778 11.1797Z" fill="black"/>
<path d="M25.9573 11.1541C26.1888 10.7707 26.4465 10.3991 26.6143 9.98026C26.6317 9.93602 26.568 9.91242 26.542 9.94782C26.2757 10.3047 26.0962 10.7235 25.8936 11.1187C25.8733 11.1571 25.937 11.1895 25.9573 11.1541Z" fill="black"/>
<path d="M26.3269 11.034C26.5208 10.8246 26.7842 10.565 26.874 10.2848C26.8855 10.2465 26.845 10.22 26.8132 10.2406C26.5758 10.4117 26.405 10.742 26.2632 10.9957C26.2429 11.034 26.2979 11.0605 26.324 11.031L26.3269 11.034Z" fill="black"/>
<path d="M26.6486 11.2722C26.8975 10.9595 27.2246 10.6793 27.3954 10.3106C27.4157 10.2693 27.3722 10.228 27.3346 10.2575C27.0133 10.5112 26.828 10.9035 26.608 11.2397C26.5878 11.2692 26.6283 11.2987 26.6515 11.2722H26.6486Z" fill="black"/>
<path d="M27.0629 11.428C27.2713 11.2422 27.4768 11.0269 27.5405 10.7438C27.5492 10.7084 27.4971 10.6877 27.4768 10.7172C27.3176 10.9355 27.2019 11.1744 27.0108 11.369C26.9761 11.4074 27.0253 11.4634 27.0658 11.428H27.0629Z" fill="black"/>
<path d="M27.4338 11.3983C27.5959 11.3776 27.7407 11.2921 27.7552 11.1151C27.7552 11.0886 27.7204 11.0709 27.703 11.0915C27.6249 11.1859 27.5438 11.301 27.4223 11.3393C27.3875 11.3511 27.3962 11.4012 27.4338 11.3983Z" fill="black"/>
<path d="M19.4994 10.3755C19.3286 10.9713 19.1897 11.5789 19.0392 12.1776C19.0305 12.213 19.0768 12.2307 19.0913 12.1983C19.3344 11.6231 19.5313 11.0185 19.6181 10.3991C19.6268 10.3313 19.5197 10.3106 19.4994 10.3755Z" fill="black"/>
<path d="M20.1614 10.1694C19.9993 10.6855 19.7272 11.2636 19.7012 11.8063C19.7012 11.8417 19.7475 11.8476 19.7649 11.821C20.0283 11.3462 20.0977 10.712 20.228 10.19C20.2367 10.1517 20.173 10.131 20.1614 10.1694Z" fill="black"/>
<path d="M20.66 10.0923C20.5558 10.343 20.4776 10.6055 20.3937 10.865C20.3329 11.0597 20.2489 11.2543 20.2402 11.4579C20.2402 11.5109 20.3068 11.5286 20.3329 11.4874C20.4515 11.3015 20.4979 11.0715 20.5644 10.8621C20.6397 10.6202 20.7207 10.3784 20.7729 10.1306C20.7902 10.0539 20.6889 10.0185 20.6571 10.0923H20.66Z" fill="black"/>
<path d="M21.3372 9.60848C21.2098 9.95062 21.0824 10.2957 20.9666 10.6408C20.8682 10.9357 20.7235 11.2395 20.7119 11.5551C20.7119 11.5964 20.764 11.6347 20.793 11.5905C20.9695 11.3251 21.0361 10.9859 21.1287 10.6821C21.2358 10.337 21.3343 9.98896 21.4298 9.64092C21.4472 9.57899 21.3603 9.54654 21.3372 9.60848Z" fill="black"/>
<path d="M21.8644 9.71774C21.7226 10.0245 21.6299 10.3519 21.5286 10.6734C21.4418 10.9506 21.3173 11.2338 21.3115 11.5287C21.3115 11.5906 21.3897 11.5906 21.4157 11.5493C21.5836 11.2898 21.6386 10.9565 21.7255 10.6616C21.8123 10.3637 21.9078 10.0658 21.957 9.75904C21.9657 9.70595 21.8905 9.65875 21.8644 9.71774Z" fill="black"/>
<path d="M22.4458 9.68487C22.1853 10.2482 21.9392 10.8116 21.754 11.4044C21.7395 11.4486 21.8061 11.4781 21.8293 11.4368C22.1042 10.8794 22.3156 10.2983 22.5182 9.71141C22.5355 9.66422 22.4661 9.64062 22.4458 9.68487Z" fill="black"/>
<path d="M22.9088 9.68222C22.7641 9.92407 22.6686 10.1925 22.5586 10.452C22.4631 10.6791 22.3299 10.921 22.3154 11.1687C22.3154 11.213 22.3646 11.2425 22.3965 11.2041C22.5557 11.0124 22.6252 10.7529 22.712 10.5199C22.8133 10.2544 22.9291 9.98896 22.9928 9.70876C23.0044 9.65862 22.9349 9.63797 22.9117 9.67927L22.9088 9.68222Z" fill="black"/>
<path d="M23.3281 9.57045C23.0907 10.0542 22.7984 10.6028 22.6971 11.1396C22.6884 11.1838 22.755 11.2133 22.781 11.1749C23.0792 10.7207 23.247 10.119 23.4091 9.59995C23.4236 9.55275 23.3513 9.52621 23.331 9.57045H23.3281Z" fill="black"/>
<path d="M23.8261 9.494C23.5916 10.0278 23.2211 10.6384 23.1371 11.2224C23.1314 11.2607 23.1864 11.2991 23.2124 11.2607C23.554 10.7829 23.7132 10.0839 23.91 9.53234C23.9303 9.4763 23.8521 9.43796 23.8261 9.494Z" fill="black"/>
<path d="M24.1835 9.73072C23.9867 10.1967 23.7869 10.6598 23.648 11.1465C23.6364 11.1848 23.6943 11.1995 23.7117 11.1671C23.9462 10.7188 24.1169 10.2498 24.2964 9.77791C24.3225 9.71303 24.2096 9.66289 24.1835 9.72777V9.73072Z" fill="black"/>
<path d="M24.758 9.49025C24.5409 9.97396 24.3093 10.4636 24.1703 10.9797C24.1588 11.024 24.2224 11.0535 24.2456 11.0122C24.5032 10.5461 24.6682 10.0329 24.8477 9.53449C24.868 9.4814 24.7811 9.44011 24.758 9.4932V9.49025Z" fill="black"/>
<path d="M25.0859 9.64421C24.9527 10.122 24.7761 10.588 24.5909 11.0452C24.5648 11.1101 24.6488 11.1573 24.6864 11.0953C24.9585 10.6529 25.109 10.1751 25.193 9.66485C25.2045 9.59407 25.1061 9.57637 25.0859 9.64421Z" fill="black"/>
<path d="M25.3196 9.92424C25.2038 10.3519 25.0619 10.7707 24.9114 11.1866C24.8911 11.2456 24.9722 11.3016 25.0098 11.2456C25.2732 10.8533 25.4035 10.4286 25.4701 9.96258C25.4817 9.8741 25.3427 9.83576 25.3196 9.92424Z" fill="black"/>
<path d="M13.3193 17.746C13.5046 18.8107 14.9461 18.7812 15.803 18.8461C18.0955 19.026 20.4286 18.7517 22.6314 18.094C22.6459 18.0911 22.6401 18.0704 22.6257 18.0734C21.4041 18.4037 20.1681 18.678 18.906 18.7753C17.6816 18.8697 13.9677 19.1971 13.3772 17.7224C13.3628 17.6899 13.3164 17.7106 13.3222 17.743L13.3193 17.746Z" fill="black"/>
<path d="M11.9245 14.8231C11.745 14.9528 11.5858 15.1947 11.6321 15.4247C11.6379 15.4572 11.6813 15.466 11.7016 15.4424C11.8406 15.3009 11.9158 15.0443 11.9679 14.8525C11.9737 14.826 11.9477 14.8054 11.9245 14.8201V14.8231Z" fill="black"/>
<path d="M12.247 14.6945C12.082 15.1045 11.9517 15.5292 11.8012 15.945C11.7925 15.9686 11.8272 15.9952 11.8417 15.9716C12.082 15.5911 12.2672 15.1664 12.3193 14.7122C12.3251 14.6679 12.2643 14.6561 12.247 14.6945Z" fill="black"/>
<path d="M12.755 14.7078C12.4047 15.3802 12.1268 16.1235 11.9039 16.8491C11.8924 16.8844 11.9474 16.9051 11.9647 16.8726C12.3005 16.1972 12.6131 15.4687 12.8244 14.7432C12.836 14.7048 12.7781 14.6665 12.7579 14.7078H12.755Z" fill="black"/>
<path d="M13.2318 14.9217C13.0292 15.3788 12.8294 15.8331 12.676 16.3109C12.6616 16.3551 12.7223 16.3817 12.7426 16.3404C12.9626 15.892 13.1334 15.4201 13.3013 14.9482C13.3186 14.901 13.2492 14.8774 13.2289 14.9217H13.2318Z" fill="black"/>
<path d="M13.5881 14.9668C13.3855 15.3945 13.2552 15.8575 13.1597 16.3206C13.1539 16.353 13.2002 16.3796 13.2147 16.3442C13.4028 15.9106 13.5649 15.4564 13.646 14.9874C13.6518 14.955 13.6055 14.9285 13.5881 14.9638V14.9668Z" fill="black"/>
<path d="M13.8484 15.3584C13.7326 15.6386 13.6805 15.9895 13.7123 16.2904C13.7181 16.3346 13.776 16.3258 13.7905 16.2904C13.9034 16.0102 13.941 15.6563 13.9034 15.3584C13.9005 15.3259 13.8571 15.3318 13.8484 15.3584Z" fill="black"/>
<path d="M13.9947 16.1007C13.9803 16.2865 13.9687 16.4694 13.9629 16.6552C13.9629 16.6906 14.0121 16.6965 14.015 16.6611C14.0324 16.4753 14.0439 16.2894 14.0526 16.1007C14.0526 16.0623 13.9976 16.0594 13.9947 16.1007Z" fill="black"/>
<path d="M29.3012 10.9061C29.7904 12.5814 28.4704 14.2832 27.3242 15.3244C27.2981 15.348 27.3299 15.3863 27.356 15.3657C28.5486 14.4985 30.0943 12.4575 29.3475 10.8855C29.333 10.853 29.2896 10.8737 29.2983 10.9061H29.3012Z" fill="black"/>
<path d="M29.6347 12.7762C29.2613 14.0828 28.6129 15.1889 27.6576 16.1357C27.6316 16.1622 27.6663 16.2035 27.6952 16.1799C28.7431 15.3364 29.4552 14.1271 29.681 12.7851C29.6868 12.7556 29.6434 12.7467 29.6347 12.7762Z" fill="black"/>
<path d="M28.2586 13.2448C27.9199 14.1355 27.0255 14.7018 26.3047 15.2327C25.746 15.6456 25.1758 16.035 24.5911 16.4095C24.5708 16.4243 24.5882 16.4567 24.6084 16.4449C25.885 15.7135 27.7607 14.7579 28.2933 13.2566C28.302 13.233 28.2673 13.2212 28.2586 13.2448Z" fill="black"/>
<path d="M25.2244 16.6715C25.6934 16.4798 26.1189 16.2114 26.4923 15.8634C26.5068 15.8486 26.4865 15.8221 26.472 15.8368C26.0928 16.176 25.676 16.4444 25.21 16.6391C25.1897 16.6479 25.2042 16.6804 25.2244 16.6715Z" fill="black"/>
<path d="M26.1416 16.9634C26.6221 16.7806 27.0476 16.5151 27.4211 16.1582C27.4384 16.1405 27.4124 16.1111 27.395 16.1287C27.0216 16.4738 26.6019 16.7393 26.13 16.9192C26.1011 16.931 26.1156 16.9752 26.1445 16.9634H26.1416Z" fill="black"/>
<path d="M14.3731 12.2638C15.9014 10.8333 17.8843 10.1963 19.7282 9.30849C19.7513 9.29669 19.734 9.2672 19.7108 9.27604C17.9422 10.0075 15.6207 10.7095 14.3383 12.2284C14.321 12.2491 14.3499 12.2845 14.3702 12.2638H14.3731Z" fill="black"/>
<path d="M3.82384 14.1654C3.91068 14.5753 4.02068 14.9794 4.15962 15.3717C4.1741 15.413 4.23199 15.3923 4.22331 15.351C4.13647 14.9411 4.012 14.5429 3.86726 14.1477C3.85568 14.1182 3.81805 14.1329 3.82384 14.1624V14.1654Z" fill="black"/>
<path d="M4.22091 12.983C4.13697 13.6702 4.20644 14.3338 4.43222 14.9886C4.44091 15.0151 4.48433 15.0033 4.47564 14.9738C4.25275 14.3279 4.1746 13.6643 4.24118 12.983C4.24118 12.9712 4.22381 12.9712 4.22381 12.983H4.22091Z" fill="black"/>
<path d="M4.47068 12.609C4.39831 13.2992 4.40699 14.0336 4.6183 14.7002C4.62988 14.7385 4.68488 14.7267 4.6762 14.6854C4.56041 13.9923 4.46489 13.3139 4.5112 12.609C4.5112 12.5825 4.47357 12.5825 4.47068 12.609Z" fill="black"/>
<path d="M4.83498 12.4897C4.74525 13.2153 4.71341 14.0028 4.92182 14.7107C4.9334 14.749 5.00287 14.7549 4.99998 14.7048C4.95656 13.9615 4.85814 13.2418 4.89287 12.4927C4.89287 12.4543 4.84077 12.4514 4.83788 12.4897H4.83498Z" fill="black"/>
<path d="M5.23673 12.3577C4.98779 13.0184 5.00516 13.7764 5.29173 14.4223C5.31489 14.4754 5.39883 14.4459 5.38436 14.3899C5.21647 13.7145 5.19331 13.0715 5.32647 12.3843C5.33805 12.3312 5.257 12.3105 5.23673 12.3607V12.3577Z" fill="black"/>
<path d="M5.51753 12.3863C5.36411 12.8907 5.32359 13.5454 5.55226 14.0321C5.57253 14.0734 5.642 14.0704 5.63621 14.0144C5.61595 13.7814 5.55516 13.5543 5.53779 13.3213C5.51463 13.0116 5.54358 12.7078 5.58121 12.4011C5.587 12.3568 5.52911 12.345 5.51753 12.3863Z" fill="black"/>
<path d="M5.87387 12.054C5.78414 12.6881 5.73493 13.3871 5.90572 14.0124C5.92019 14.0596 5.99255 14.0478 5.98966 13.9976C5.95203 13.3429 5.87387 12.7264 5.94045 12.0687C5.94624 12.0245 5.87966 12.0127 5.87387 12.0569V12.054Z" fill="black"/>
<path d="M6.47284 11.9156C6.22969 12.5291 6.17469 13.1839 6.386 13.8121C6.40337 13.8652 6.47863 13.8416 6.46705 13.7856C6.34258 13.1603 6.33969 12.5557 6.53363 11.9451C6.5481 11.9038 6.49021 11.8743 6.47284 11.9156Z" fill="black"/>
<path d="M6.95295 12.1195C6.85453 12.6238 6.86322 13.1134 7.00795 13.6031C7.02242 13.6502 7.09189 13.6384 7.08321 13.5913C6.98479 13.1105 6.95874 12.6209 7.0311 12.1342C7.03689 12.09 6.96163 12.0752 6.95295 12.1195Z" fill="black"/>
<path d="M7.33335 12.0978C7.27256 12.6434 7.27835 13.1831 7.35361 13.7258C7.36229 13.7789 7.44334 13.7789 7.44045 13.7229C7.4144 13.1831 7.39992 12.6434 7.39124 12.1037C7.39124 12.0683 7.34203 12.0624 7.33624 12.0978H7.33335Z" fill="black"/>
<path d="M7.81275 12.2822C7.67092 12.7453 7.64776 13.2084 7.80407 13.6685C7.82144 13.7186 7.89381 13.7009 7.88223 13.6478C7.79539 13.1966 7.78091 12.7542 7.89959 12.3058C7.91407 12.2557 7.82723 12.2292 7.81275 12.2793V12.2822Z" fill="black"/>
<path d="M8.10835 12.2315C8.04466 12.7359 8.10256 13.2756 8.26466 13.7564C8.28492 13.8183 8.38334 13.7918 8.37176 13.7269C8.2936 13.2284 8.24729 12.7359 8.21834 12.2345C8.21545 12.1696 8.11414 12.1696 8.10545 12.2345L8.10835 12.2315Z" fill="black"/>
<path d="M8.62695 12.0811C8.64722 12.7005 8.66169 13.3199 8.72537 13.9393C8.73116 13.9953 8.80932 13.9924 8.81221 13.9363C8.818 13.3169 8.77169 12.7005 8.73116 12.0841C8.72827 12.0162 8.62695 12.0162 8.62695 12.0841V12.0811Z" fill="black"/>
<path d="M9.15359 12.4817C9.17385 12.8121 9.19411 13.1395 9.22885 13.4698C9.23464 13.514 9.30411 13.5111 9.30411 13.4668C9.29543 13.1336 9.26938 12.8032 9.24332 12.4729C9.23753 12.4139 9.1478 12.4227 9.15359 12.4847V12.4817Z" fill="black"/>
<path d="M9.81286 12.1781C9.75208 12.6412 9.72313 13.0865 9.8476 13.5437C9.86207 13.5968 9.95181 13.5938 9.94602 13.5319C9.91997 13.0865 9.87365 12.6382 9.92575 12.1929C9.93444 12.1191 9.82155 12.1044 9.81286 12.1781Z" fill="black"/>
<path d="M10.2939 12.5825C10.2997 12.8745 10.2968 13.1635 10.3374 13.4555C10.346 13.5234 10.4358 13.5234 10.4416 13.4555C10.4647 13.1665 10.4503 12.8804 10.4387 12.5884C10.4358 12.494 10.2939 12.4911 10.2939 12.5854V12.5825Z" fill="black"/>
<path d="M10.8412 12.6196C10.8702 12.9028 10.9165 13.1771 10.9975 13.4514C11.012 13.5015 11.0959 13.5045 11.0959 13.4425C11.0873 13.1535 11.0496 12.8762 10.986 12.596C10.9686 12.5134 10.8325 12.5341 10.8412 12.6196Z" fill="black"/>
<path d="M11.5151 12.6065C11.4717 12.9457 11.4717 13.2996 11.6048 13.6182C11.628 13.6771 11.7061 13.6359 11.6974 13.5828C11.654 13.2524 11.599 12.9486 11.6338 12.6124C11.6425 12.5328 11.5238 12.5298 11.5122 12.6065H11.5151Z" fill="black"/>
<path d="M12.0809 12.8467C12.1214 13.1269 12.1678 13.4012 12.2343 13.6755C12.2459 13.7257 12.3241 13.708 12.3183 13.6578C12.2893 13.3776 12.243 13.1092 12.188 12.8349C12.1735 12.7642 12.0664 12.773 12.078 12.8467H12.0809Z" fill="black"/>
<path d="M12.5308 14.0716C12.4961 14.3518 12.5453 14.6232 12.7335 14.8355C12.7653 14.8709 12.8203 14.8267 12.8 14.7854C12.6756 14.5495 12.5887 14.3607 12.5945 14.0687C12.5945 14.0274 12.5366 14.0303 12.5308 14.0687V14.0716Z" fill="black"/>
<path d="M12.9948 14.0943C13.073 14.4216 13.1425 14.752 13.2525 15.0705C13.2669 15.1148 13.3335 15.0882 13.3248 15.044C13.2669 14.7107 13.1685 14.3892 13.0788 14.0618C13.0643 14.0058 12.9804 14.0353 12.9948 14.0913V14.0943Z" fill="black"/>
<path d="M13.4456 14.3815C13.5353 14.6204 13.6221 14.8534 13.7292 15.0805C13.7524 15.1277 13.8219 15.0894 13.8074 15.0422C13.735 14.8003 13.6424 14.5703 13.5498 14.3373C13.5237 14.2694 13.4195 14.3107 13.4456 14.3815Z" fill="black"/>
<path d="M14.0445 14.7315C14.1342 14.9026 14.2239 15.0678 14.331 15.2271C14.3629 15.2742 14.4237 15.233 14.4034 15.1828C14.3252 15.0058 14.2384 14.8436 14.1429 14.6785C14.111 14.6224 14.0155 14.6726 14.0445 14.7315Z" fill="black"/>
<path d="M14.5401 14.8647C14.6124 15.0682 14.6587 15.3041 14.8093 15.4575C14.8556 15.5047 14.9337 15.4634 14.9337 15.4015C14.9308 15.1803 14.7948 14.9856 14.7051 14.7909C14.6558 14.6847 14.5024 14.7555 14.5401 14.8647Z" fill="black"/>
<path d="M15.1975 15.2535C15.2641 15.5248 15.3856 15.7726 15.5275 16.0115C15.5564 16.0616 15.6259 16.0115 15.6085 15.9614C15.513 15.7018 15.3972 15.4541 15.2322 15.2328C15.2206 15.2151 15.1946 15.2328 15.1975 15.2535Z" fill="black"/>
<path d="M15.8197 14.5824C15.9268 15.2077 16.0079 15.8418 16.1729 16.4553C16.1816 16.4907 16.2308 16.4818 16.2279 16.4464C16.1584 15.8123 16.0079 15.19 15.8805 14.5647C15.8718 14.5234 15.814 14.5411 15.8197 14.5795V14.5824Z" fill="black"/>
<path d="M16.4962 14.9584C16.5338 15.5482 16.5714 16.1381 16.638 16.728C16.6438 16.7693 16.7046 16.7693 16.7017 16.728C16.6699 16.1352 16.6091 15.5453 16.5454 14.9554C16.5425 14.92 16.4904 14.9289 16.4933 14.9613L16.4962 14.9584Z" fill="black"/>
<path d="M16.9626 15.2364C16.9568 15.7083 16.9163 16.1979 16.9655 16.6698C16.9684 16.7082 17.0321 16.7141 17.035 16.6698C17.0784 16.1979 17.0292 15.7083 17.0147 15.2334C17.0147 15.201 16.9597 15.204 16.9597 15.2334L16.9626 15.2364Z" fill="black"/>
<path d="M17.1955 15.8209C17.2592 16.1158 17.2708 16.4137 17.2794 16.7145C17.2794 16.7676 17.3518 16.7706 17.3605 16.7145C17.401 16.3989 17.3576 16.1011 17.2766 15.7973C17.2621 15.7442 17.1839 15.7678 17.1955 15.8209Z" fill="black"/>
<path d="M17.5987 16.1777C17.6103 16.3104 17.6219 16.4431 17.6335 16.5759C17.6364 16.6113 17.6885 16.6024 17.6885 16.567C17.6798 16.4372 17.6711 16.3075 17.6624 16.1777C17.6624 16.1364 17.5958 16.1364 17.5987 16.1777Z" fill="black"/>
<path d="M17.8276 16.6458C17.8276 16.6458 17.8385 16.6321 17.8276 16.6321C17.8166 16.6321 17.8166 16.6458 17.8276 16.6458Z" fill="black"/>
<path d="M18.1157 20.4008C18.217 20.3772 18.3183 20.3536 18.4167 20.3241C18.4399 20.3182 18.4312 20.2799 18.4081 20.2858C18.3067 20.3153 18.2083 20.3477 18.107 20.3772C18.0925 20.3802 18.0983 20.4037 18.1128 20.4008H18.1157Z" fill="black"/>
<path d="M19.5326 20.1099C18.8639 20.2102 18.1952 20.2839 17.5295 20.4167C17.4831 20.4255 17.4918 20.4963 17.541 20.4904C18.2097 20.4108 18.8697 20.2692 19.5326 20.1542C19.5615 20.1483 19.5586 20.104 19.5326 20.1099Z" fill="black"/>
<path d="M18.2521 20.3225C17.6066 20.9802 16.8569 21.3843 15.9277 21.3607C15.9017 21.3607 15.9017 21.399 15.9277 21.399C16.828 21.4845 17.7832 21.1395 18.3216 20.3697C18.3506 20.3284 18.2869 20.2871 18.2521 20.3195V20.3225Z" fill="black"/>
<path d="M14.5312 21.3541C14.0768 21.3099 13.6194 21.2538 13.165 21.2273C13.1418 21.2273 13.1389 21.2627 13.165 21.2656C13.6165 21.3217 14.0739 21.3453 14.5283 21.3836C14.5457 21.3836 14.5515 21.3571 14.5341 21.3571L14.5312 21.3541Z" fill="black"/>
<path d="M15.0477 21.0143C15.4501 21.0231 15.8525 21.0349 16.2548 21.0438C16.2722 21.0438 16.2693 21.0172 16.2548 21.0172C15.8525 21.0113 15.4501 21.0025 15.0477 20.9966C15.0362 20.9966 15.0362 21.0143 15.0477 21.0143Z" fill="black"/>
<path d="M14.8624 22.217C15.6556 22.1668 16.4487 21.9869 17.1637 21.6182C17.2042 21.5976 17.1753 21.5238 17.1318 21.5415C16.3908 21.8394 15.6556 22.0695 14.8624 22.1727C14.8364 22.1757 14.8335 22.217 14.8624 22.217Z" fill="black"/>
<path d="M14.4308 22.8018C15.9186 22.9582 17.447 22.3801 18.3849 21.1649C18.4138 21.1295 18.3559 21.0823 18.3241 21.1118C17.2212 22.1412 15.9505 22.7281 14.4366 22.737C14.4018 22.737 14.3931 22.7989 14.4308 22.8018Z" fill="black"/>
<path d="M17.9355 21.0871C18.4015 20.9249 18.9833 20.5444 19.1715 20.0577C19.1946 19.9958 19.1136 19.9575 19.0702 19.9958C18.8849 20.158 18.7489 20.3733 18.5665 20.5415C18.3639 20.7302 18.1381 20.8924 17.9065 21.0399C17.8776 21.0576 17.9065 21.0959 17.9355 21.0871Z" fill="black"/>
<path d="M3.01053 13.7357C2.75001 15.0305 3.06263 16.3371 3.7284 17.4609C3.73998 17.4815 3.77182 17.4668 3.76024 17.4461C3.10894 16.2929 2.93527 15.0659 3.05684 13.7475C3.05684 13.718 3.01632 13.7062 3.01053 13.7387V13.7357Z" fill="black"/>
<path d="M2.82031 16.2213C2.91584 17.0265 3.32398 17.7403 3.99844 18.1798C4.02449 18.1975 4.05633 18.1591 4.03028 18.1385C3.40793 17.6695 2.98241 17.0029 2.87242 16.2154C2.86663 16.183 2.81742 16.1889 2.82321 16.2213H2.82031Z" fill="black"/>
<path d="M3.72913 15.9675C3.9578 16.5662 4.35437 17.044 4.88409 17.3891C4.91593 17.4098 4.94488 17.3655 4.91593 17.3419C4.447 16.9614 4.0707 16.4807 3.78991 15.9409C3.77255 15.9085 3.71755 15.935 3.72913 15.9704V15.9675Z" fill="black"/>
</g>
<defs>
<clipPath id="clip0_45_108">
<rect width="28" height="15.75" fill="white" transform="translate(2 8.125)"/>
</clipPath>
</defs>
</svg>
